<mxfile host="app.diagrams.net" agent="Mozilla/5.0 (Windows NT 10.0; Win64; x64) AppleWebKit/537.36 (KHTML, like Gecko) Chrome/136.0.0.0 Safari/537.36 Edg/136.0.0.0" version="27.0.9">
  <diagram name="Page-1" id="3D2FdSwt730-bJIRBrUr">
    <mxGraphModel dx="823" dy="2366" grid="1" gridSize="10" guides="1" tooltips="1" connect="1" arrows="1" fold="1" page="1" pageScale="1" pageWidth="1200" pageHeight="1920" math="0" shadow="0">
      <root>
        <mxCell id="0" />
        <mxCell id="1" parent="0" />
        <mxCell id="dB741nNXYGSVpexJ5eay-82" style="edgeStyle=orthogonalEdgeStyle;rounded=1;orthogonalLoop=1;jettySize=auto;html=1;exitX=0;exitY=0.5;exitDx=0;exitDy=0;entryX=0.347;entryY=0.991;entryDx=0;entryDy=0;entryPerimeter=0;endArrow=none;startFill=0;elbow=vertical;" parent="1" source="dB741nNXYGSVpexJ5eay-42" target="dB741nNXYGSVpexJ5eay-10" edge="1">
          <mxGeometry relative="1" as="geometry" />
        </mxCell>
        <mxCell id="dB741nNXYGSVpexJ5eay-54" style="edgeStyle=orthogonalEdgeStyle;rounded=1;orthogonalLoop=1;jettySize=auto;html=1;exitX=1;exitY=0.5;exitDx=0;exitDy=0;curved=0;strokeWidth=2;fillColor=#dae8fc;strokeColor=#6c8ebf;endArrow=none;startFill=0;entryX=0.516;entryY=0.947;entryDx=0;entryDy=0;entryPerimeter=0;" parent="1" source="dB741nNXYGSVpexJ5eay-42" target="BAsTYENJM7hNqjlwhcNn-6" edge="1">
          <mxGeometry relative="1" as="geometry">
            <mxPoint x="616" y="80" as="targetPoint" />
          </mxGeometry>
        </mxCell>
        <mxCell id="BAsTYENJM7hNqjlwhcNn-9" value="" style="points=[[0.005,0.09,0],[0.08,0,0],[0.76,0.25,0],[1,0.92,0],[0.91,0.995,0],[0.57,0.995,0],[0.045,0.955,0],[0.005,0.43,0]];verticalLabelPosition=bottom;sketch=0;html=1;verticalAlign=top;aspect=fixed;align=center;pointerEvents=1;shape=mxgraph.cisco19.3g_4g_indicator;rotation=-90;strokeWidth=100;fillColor=#000000;strokeColor=default;fontColor=#333333;gradientColor=none;fillStyle=auto;" parent="1" vertex="1">
          <mxGeometry x="486" y="-53.99999999999999" width="20" height="20" as="geometry" />
        </mxCell>
        <mxCell id="dB741nNXYGSVpexJ5eay-8" value="" style="group" parent="1" vertex="1" connectable="0">
          <mxGeometry x="510" y="-54" width="54.5" height="54.5" as="geometry" />
        </mxCell>
        <mxCell id="BAsTYENJM7hNqjlwhcNn-14" value="" style="rounded=1;whiteSpace=wrap;html=1;perimeterSpacing=0;opacity=50;glass=0;arcSize=22;" parent="dB741nNXYGSVpexJ5eay-8" vertex="1">
          <mxGeometry width="54.5" height="54.5" as="geometry" />
        </mxCell>
        <mxCell id="dB741nNXYGSVpexJ5eay-1" value="" style="ellipse;whiteSpace=wrap;html=1;aspect=fixed;strokeWidth=2.5;shadow=0;strokeColor=#00D4FF;" parent="dB741nNXYGSVpexJ5eay-8" vertex="1">
          <mxGeometry x="16.52136597938143" y="16.855670103092784" width="20.788659793814436" height="20.788659793814436" as="geometry" />
        </mxCell>
        <mxCell id="dB741nNXYGSVpexJ5eay-3" value="" style="ellipse;whiteSpace=wrap;html=1;aspect=fixed;strokeWidth=1;shadow=0;strokeColor=#00D4FF;fillColor=#02CCFF;perimeterSpacing=0;" parent="dB741nNXYGSVpexJ5eay-8" vertex="1">
          <mxGeometry x="17.364149484536068" y="8.84922680412371" width="0.5618556701030927" height="0.5618556701030927" as="geometry" />
        </mxCell>
        <mxCell id="dB741nNXYGSVpexJ5eay-4" value="" style="ellipse;whiteSpace=wrap;html=1;aspect=fixed;strokeWidth=1;shadow=0;strokeColor=#00D4FF;fillColor=#02CCFF;perimeterSpacing=0;" parent="dB741nNXYGSVpexJ5eay-8" vertex="1">
          <mxGeometry x="26.6347680412371" y="8.84922680412371" width="0.5618556701030927" height="0.5618556701030927" as="geometry" />
        </mxCell>
        <mxCell id="dB741nNXYGSVpexJ5eay-6" value="" style="ellipse;whiteSpace=wrap;html=1;aspect=fixed;strokeWidth=1;shadow=0;strokeColor=#00D4FF;fillColor=#02CCFF;perimeterSpacing=0;" parent="dB741nNXYGSVpexJ5eay-8" vertex="1">
          <mxGeometry x="35.905386597938126" y="8.84922680412371" width="0.5618556701030927" height="0.5618556701030927" as="geometry" />
        </mxCell>
        <mxCell id="dB741nNXYGSVpexJ5eay-10" value="" style="html=1;verticalLabelPosition=bottom;align=center;labelBackgroundColor=#ffffff;verticalAlign=top;strokeWidth=2;strokeColor=#0080F0;shadow=0;dashed=0;shape=mxgraph.ios7.icons.video_conversation;rotation=10;" parent="1" vertex="1">
          <mxGeometry x="356" y="18" width="47.2" height="25" as="geometry" />
        </mxCell>
        <mxCell id="dB741nNXYGSVpexJ5eay-14" value="" style="html=1;verticalLabelPosition=bottom;align=center;labelBackgroundColor=#ffffff;verticalAlign=top;strokeWidth=2;strokeColor=#d6b656;shadow=0;dashed=0;shape=mxgraph.ios7.icons.lightbulb;fillColor=#fff2cc;rotation=139;" parent="1" vertex="1">
          <mxGeometry x="420" y="-13" width="22.8" height="29.7" as="geometry" />
        </mxCell>
        <mxCell id="dB741nNXYGSVpexJ5eay-15" value="" style="points=[[0.005,0.09,0],[0.08,0,0],[0.76,0.25,0],[1,0.92,0],[0.91,0.995,0],[0.57,0.995,0],[0.045,0.955,0],[0.005,0.43,0]];verticalLabelPosition=bottom;sketch=0;html=1;verticalAlign=top;aspect=fixed;align=center;pointerEvents=1;shape=mxgraph.cisco19.3g_4g_indicator;rotation=0;strokeWidth=100;fillColor=#000000;strokeColor=default;fontColor=#333333;gradientColor=none;fillStyle=auto;" parent="1" vertex="1">
          <mxGeometry x="445" y="-54" width="20" height="20" as="geometry" />
        </mxCell>
        <mxCell id="dB741nNXYGSVpexJ5eay-17" style="rounded=1;orthogonalLoop=1;jettySize=auto;html=1;exitX=0.641;exitY=0.994;exitDx=0;exitDy=0;entryX=0.18;entryY=0.98;entryDx=0;entryDy=0;entryPerimeter=0;edgeStyle=orthogonalEdgeStyle;curved=0;endArrow=none;endFill=0;startFill=0;fillColor=#dae8fc;strokeColor=#6c8ebf;strokeWidth=2;exitPerimeter=0;" parent="1" source="BAsTYENJM7hNqjlwhcNn-14" target="BAsTYENJM7hNqjlwhcNn-6" edge="1">
          <mxGeometry relative="1" as="geometry" />
        </mxCell>
        <mxCell id="BAsTYENJM7hNqjlwhcNn-6" value="" style="fillColorStyles=neutralFill;neutralFill=#9DA6A8;shape=mxgraph.networks2.icon;aspect=fixed;network2IconShadow=1;network2bgFillColor=none;network2Icon=mxgraph.networks2.router;network2IconXOffset=0.0001;network2IconYOffset=-0.1142;network2IconW=1;network2IconH=0.5485;connectable=1;" parent="1" vertex="1">
          <mxGeometry x="610" y="-39.5" width="72.92" height="40" as="geometry" />
        </mxCell>
        <mxCell id="dB741nNXYGSVpexJ5eay-19" style="edgeStyle=orthogonalEdgeStyle;rounded=1;orthogonalLoop=1;jettySize=auto;html=1;exitX=0.001;exitY=0.871;exitDx=0;exitDy=0;entryX=0.823;entryY=1;entryDx=0;entryDy=0;entryPerimeter=0;curved=0;endArrow=none;startFill=0;fillColor=#dae8fc;strokeColor=#6c8ebf;strokeWidth=2;exitPerimeter=0;" parent="1" source="dB741nNXYGSVpexJ5eay-18" target="BAsTYENJM7hNqjlwhcNn-6" edge="1">
          <mxGeometry relative="1" as="geometry" />
        </mxCell>
        <mxCell id="dB741nNXYGSVpexJ5eay-21" value="" style="group;" parent="1" vertex="1" connectable="0">
          <mxGeometry x="700" y="30" width="122.08000000000004" height="70" as="geometry" />
        </mxCell>
        <mxCell id="BAsTYENJM7hNqjlwhcNn-7" value="" style="shape=mxgraph.networks2.icon;aspect=fixed;network2IconShadow=1;network2bgFillColor=none;network2Icon=mxgraph.networks2.laptop;network2IconW=1;network2IconH=0.5734;" parent="dB741nNXYGSVpexJ5eay-21" vertex="1">
          <mxGeometry width="122.08" height="70" as="geometry" />
        </mxCell>
        <mxCell id="dB741nNXYGSVpexJ5eay-18" value="" style="rounded=0;whiteSpace=wrap;html=1;opacity=0;strokeColor=none;" parent="dB741nNXYGSVpexJ5eay-21" vertex="1">
          <mxGeometry y="10" width="120" height="60" as="geometry" />
        </mxCell>
        <mxCell id="dB741nNXYGSVpexJ5eay-53" value="" style="group" parent="1" vertex="1" connectable="0">
          <mxGeometry x="427.2" y="70" width="124" height="66" as="geometry" />
        </mxCell>
        <mxCell id="dB741nNXYGSVpexJ5eay-47" value="" style="ellipse;whiteSpace=wrap;html=1;aspect=fixed;fillColor=none;" parent="dB741nNXYGSVpexJ5eay-53" vertex="1">
          <mxGeometry x="59" y="38.5" width="20" height="20" as="geometry" />
        </mxCell>
        <mxCell id="dB741nNXYGSVpexJ5eay-48" value="" style="ellipse;whiteSpace=wrap;html=1;aspect=fixed;fillColor=none;" parent="dB741nNXYGSVpexJ5eay-53" vertex="1">
          <mxGeometry x="21.5" y="38.5" width="20" height="20" as="geometry" />
        </mxCell>
        <mxCell id="dB741nNXYGSVpexJ5eay-46" value="" style="ellipse;whiteSpace=wrap;html=1;aspect=fixed;fillColor=none;" parent="dB741nNXYGSVpexJ5eay-53" vertex="1">
          <mxGeometry x="96.5" y="38.5" width="20" height="20" as="geometry" />
        </mxCell>
        <mxCell id="dB741nNXYGSVpexJ5eay-34" value="" style="ellipse;whiteSpace=wrap;html=1;aspect=fixed;fillColor=none;" parent="dB741nNXYGSVpexJ5eay-53" vertex="1">
          <mxGeometry x="14" y="31" width="35" height="35" as="geometry" />
        </mxCell>
        <mxCell id="dB741nNXYGSVpexJ5eay-28" value="" style="endArrow=none;html=1;rounded=0;anchorPointDirection=0;" parent="dB741nNXYGSVpexJ5eay-53" edge="1">
          <mxGeometry width="527.36" height="365" relative="1" as="geometry">
            <mxPoint x="34" y="30" as="sourcePoint" />
            <mxPoint x="22" y="48" as="targetPoint" />
            <Array as="points">
              <mxPoint x="22" y="41" />
            </Array>
          </mxGeometry>
        </mxCell>
        <mxCell id="dB741nNXYGSVpexJ5eay-29" value="" style="endArrow=none;html=1;rounded=0;anchorPointDirection=0;curved=0;" parent="dB741nNXYGSVpexJ5eay-53" edge="1">
          <mxGeometry width="50" height="50" relative="1" as="geometry">
            <mxPoint x="107" y="51" as="sourcePoint" />
            <mxPoint x="22" y="48" as="targetPoint" />
            <Array as="points">
              <mxPoint x="26" y="51" />
            </Array>
          </mxGeometry>
        </mxCell>
        <mxCell id="dB741nNXYGSVpexJ5eay-32" value="" style="endArrow=none;html=1;rounded=0;anchorPointDirection=0;curved=0;" parent="dB741nNXYGSVpexJ5eay-53" edge="1">
          <mxGeometry width="50" height="50" relative="1" as="geometry">
            <mxPoint x="116" y="34" as="sourcePoint" />
            <mxPoint x="107" y="51" as="targetPoint" />
            <Array as="points">
              <mxPoint x="116" y="42" />
            </Array>
          </mxGeometry>
        </mxCell>
        <mxCell id="dB741nNXYGSVpexJ5eay-33" value="" style="endArrow=none;html=1;rounded=1;anchorPointDirection=0;curved=0;" parent="dB741nNXYGSVpexJ5eay-53" edge="1">
          <mxGeometry width="50" height="50" relative="1" as="geometry">
            <mxPoint x="34" y="30" as="sourcePoint" />
            <mxPoint x="116" y="34" as="targetPoint" />
            <Array as="points">
              <mxPoint x="99" y="30" />
              <mxPoint x="104" y="30" />
              <mxPoint x="106" y="32" />
            </Array>
          </mxGeometry>
        </mxCell>
        <mxCell id="dB741nNXYGSVpexJ5eay-35" value="" style="ellipse;whiteSpace=wrap;html=1;aspect=fixed;fillColor=none;" parent="dB741nNXYGSVpexJ5eay-53" vertex="1">
          <mxGeometry x="51.5" y="31" width="35" height="35" as="geometry" />
        </mxCell>
        <mxCell id="dB741nNXYGSVpexJ5eay-36" value="" style="ellipse;whiteSpace=wrap;html=1;aspect=fixed;fillColor=none;" parent="dB741nNXYGSVpexJ5eay-53" vertex="1">
          <mxGeometry x="89" y="31" width="35" height="35" as="geometry" />
        </mxCell>
        <mxCell id="dB741nNXYGSVpexJ5eay-37" value="" style="rounded=0;whiteSpace=wrap;html=1;strokeColor=none;" parent="dB741nNXYGSVpexJ5eay-53" vertex="1">
          <mxGeometry x="34" y="30.5" width="69" height="20" as="geometry" />
        </mxCell>
        <mxCell id="dB741nNXYGSVpexJ5eay-38" value="" style="rounded=0;whiteSpace=wrap;html=1;strokeColor=none;rotation=45;" parent="dB741nNXYGSVpexJ5eay-53" vertex="1">
          <mxGeometry x="33" y="30.5" width="1" height="2.5" as="geometry" />
        </mxCell>
        <mxCell id="dB741nNXYGSVpexJ5eay-41" value="" style="ellipse;whiteSpace=wrap;html=1;allowArrows=0;connectable=0;strokeColor=#FFFFFF;" parent="dB741nNXYGSVpexJ5eay-53" vertex="1">
          <mxGeometry x="100.29999999999995" y="31" width="4.5" height="2.5" as="geometry" />
        </mxCell>
        <mxCell id="dB741nNXYGSVpexJ5eay-42" value="" style="rounded=0;whiteSpace=wrap;html=1;" parent="dB741nNXYGSVpexJ5eay-53" vertex="1">
          <mxGeometry x="38" y="18" width="67" height="10" as="geometry" />
        </mxCell>
        <mxCell id="dB741nNXYGSVpexJ5eay-43" value="" style="shape=process;whiteSpace=wrap;html=1;backgroundOutline=1;" parent="dB741nNXYGSVpexJ5eay-53" vertex="1">
          <mxGeometry x="50" y="3" width="20" height="15" as="geometry" />
        </mxCell>
        <mxCell id="dB741nNXYGSVpexJ5eay-45" value="" style="rounded=1;whiteSpace=wrap;html=1;" parent="dB741nNXYGSVpexJ5eay-53" vertex="1">
          <mxGeometry width="120" height="3" as="geometry" />
        </mxCell>
        <mxCell id="dB741nNXYGSVpexJ5eay-50" value="" style="rounded=0;whiteSpace=wrap;html=1;strokeColor=none;rotation=45;" parent="dB741nNXYGSVpexJ5eay-53" vertex="1">
          <mxGeometry x="100.79999999999995" y="36" width="13" height="9.57" as="geometry" />
        </mxCell>
        <mxCell id="dB741nNXYGSVpexJ5eay-51" value="" style="rounded=0;whiteSpace=wrap;html=1;strokeColor=none;rotation=48.2;" parent="dB741nNXYGSVpexJ5eay-53" vertex="1">
          <mxGeometry x="25.649999999999977" y="34.27999999999997" width="7.54" height="11.59" as="geometry" />
        </mxCell>
        <mxCell id="dB741nNXYGSVpexJ5eay-52" value="" style="rounded=0;whiteSpace=wrap;html=1;strokeColor=none;rotation=0;" parent="dB741nNXYGSVpexJ5eay-53" vertex="1">
          <mxGeometry x="22.5" y="41.30000000000001" width="6" height="6.5" as="geometry" />
        </mxCell>
        <mxCell id="dB741nNXYGSVpexJ5eay-57" value="" style="endArrow=none;html=1;rounded=0;dashed=1;strokeWidth=0.5;" parent="1" edge="1">
          <mxGeometry width="50" height="50" relative="1" as="geometry">
            <mxPoint x="447" y="68" as="sourcePoint" />
            <mxPoint x="401" y="44" as="targetPoint" />
          </mxGeometry>
        </mxCell>
        <mxCell id="dB741nNXYGSVpexJ5eay-58" value="" style="endArrow=none;html=1;rounded=0;dashed=1;strokeWidth=0.5;" parent="1" edge="1">
          <mxGeometry width="50" height="50" relative="1" as="geometry">
            <mxPoint x="497" y="32" as="sourcePoint" />
            <mxPoint x="406" y="26" as="targetPoint" />
          </mxGeometry>
        </mxCell>
        <mxCell id="dB741nNXYGSVpexJ5eay-59" value="" style="html=1;verticalLabelPosition=bottom;align=center;labelBackgroundColor=#ffffff;verticalAlign=top;strokeWidth=1;shadow=0;dashed=0;shape=mxgraph.ios7.icons.lightbulb;rotation=67.6;" parent="1" vertex="1">
          <mxGeometry x="472" y="41" width="27.8" height="35.7" as="geometry" />
        </mxCell>
        <mxCell id="dB741nNXYGSVpexJ5eay-81" value="" style="html=1;verticalLabelPosition=bottom;align=center;labelBackgroundColor=#ffffff;verticalAlign=top;strokeWidth=2;strokeColor=#d6b656;shadow=0;dashed=0;shape=mxgraph.ios7.icons.lightbulb;fillColor=#fff2cc;rotation=139;" parent="1" vertex="1">
          <mxGeometry x="389.9961657950487" y="-13.003489803200065" width="22.8" height="29.7" as="geometry" />
        </mxCell>
        <mxCell id="dB741nNXYGSVpexJ5eay-84" value="" style="sketch=0;pointerEvents=1;shadow=0;dashed=0;html=1;labelPosition=center;verticalLabelPosition=bottom;verticalAlign=top;align=center;shape=mxgraph.mscae.intune.update;strokeWidth=0.5;" parent="1" vertex="1">
          <mxGeometry x="551.2" y="58" width="24.96" height="26" as="geometry" />
        </mxCell>
        <mxCell id="dB741nNXYGSVpexJ5eay-86" value="" style="rounded=0;whiteSpace=wrap;html=1;gradientColor=#FFFFB7;gradientDirection=east;fillColor=#FFBB00;strokeWidth=0.5;perimeterSpacing=1;strokeColor=default;" parent="1" vertex="1">
          <mxGeometry x="389.02" y="-34" width="54.8" height="10" as="geometry" />
        </mxCell>
        <mxCell id="dB741nNXYGSVpexJ5eay-87" value="" style="shape=curlyBracket;whiteSpace=wrap;html=1;rounded=1;flipH=1;labelPosition=right;verticalLabelPosition=middle;align=left;verticalAlign=middle;rotation=-90;size=0.5;" parent="1" vertex="1">
          <mxGeometry x="412" y="-45" width="8.85" height="56" as="geometry" />
        </mxCell>
        <mxCell id="dB741nNXYGSVpexJ5eay-89" value="&lt;font style=&quot;font-size: 6px;&quot; face=&quot;Courier New&quot;&gt;ssh ws@rover&lt;/font&gt;" style="text;html=1;align=center;verticalAlign=middle;whiteSpace=wrap;rounded=0;fontSize=9;" parent="1" vertex="1">
          <mxGeometry x="717" y="35" width="57" height="16" as="geometry" />
        </mxCell>
        <mxCell id="dB741nNXYGSVpexJ5eay-90" value="" style="shape=image;imageAspect=0;aspect=fixed;verticalLabelPosition=bottom;verticalAlign=top;image=https://raw.githubusercontent.com/AlbertFKHansen/ProjectWork/refs/heads/main/Data/Dataset/rot/light_bulb/0.png?token=GHSAT0AAAAAAC7E7NUFLIZSEPPZMYBTJFCY2BXBJVQ;imageBorder=default;strokeWidth=0.25;" parent="1" vertex="1">
          <mxGeometry x="722.04" y="-13.299999999999997" width="25.25" height="16.85" as="geometry" />
        </mxCell>
        <mxCell id="dB741nNXYGSVpexJ5eay-92" value="" style="shape=image;imageAspect=0;aspect=fixed;verticalLabelPosition=bottom;verticalAlign=top;image=https://raw.githubusercontent.com/AlbertFKHansen/ProjectWork/refs/heads/main/Data/Dataset/rot/light_bulb/30.png?token=GHSAT0AAAAAAC7E7NUFL4VPSYTI2ALYWLHC2BXBJXQ;imageBackground=none;imageBorder=default;strokeWidth=0.25;" parent="1" vertex="1">
          <mxGeometry x="732.04" y="-8.219999999999985" width="25.62" height="17.1" as="geometry" />
        </mxCell>
        <mxCell id="dB741nNXYGSVpexJ5eay-93" value="" style="shape=image;imageAspect=0;aspect=fixed;verticalLabelPosition=bottom;verticalAlign=top;image=https://raw.githubusercontent.com/AlbertFKHansen/ProjectWork/refs/heads/main/Data/Dataset/rot/light_bulb/60.png?token=GHSAT0AAAAAAC7E7NUF2NVPFC3TZXFJGK322BXBJYQ;imageBackground=none;imageBorder=default;strokeWidth=0.25;" parent="1" vertex="1">
          <mxGeometry x="742.04" y="-0.6199999999999903" width="25.48" height="17" as="geometry" />
        </mxCell>
        <mxCell id="dB741nNXYGSVpexJ5eay-94" value="" style="html=1;verticalLabelPosition=bottom;align=center;labelBackgroundColor=#ffffff;verticalAlign=top;strokeWidth=1;strokeColor=#0080F0;shadow=0;dashed=0;shape=mxgraph.ios7.icons.documents;" parent="1" vertex="1">
          <mxGeometry x="777.54" y="-13.299999999999997" width="22.5" height="30" as="geometry" />
        </mxCell>
        <mxCell id="dB741nNXYGSVpexJ5eay-95" value="&lt;font style=&quot;font-size: 6px;&quot; face=&quot;Courier New&quot;&gt;.jpg&lt;/font&gt;" style="text;html=1;align=center;verticalAlign=middle;whiteSpace=wrap;rounded=0;fontSize=9;" parent="1" vertex="1">
          <mxGeometry x="777.99" y="-7.299999999999997" width="15" height="22" as="geometry" />
        </mxCell>
        <mxCell id="dB741nNXYGSVpexJ5eay-96" value="" style="shape=curlyBracket;whiteSpace=wrap;html=1;rounded=1;flipH=1;labelPosition=right;verticalLabelPosition=middle;align=left;verticalAlign=middle;rotation=90;size=0.5;" parent="1" vertex="1">
          <mxGeometry x="756.62" y="-24" width="8.85" height="91.01" as="geometry" />
        </mxCell>
      </root>
    </mxGraphModel>
  </diagram>
</mxfile>
